<svg xmlns="http://www.w3.org/2000/svg" viewBox="0 0 512 512" width="512" height="512">
  <defs>
    <linearGradient id="grad" x1="0%" y1="0%" x2="100%" y2="100%">
      <stop offset="0%" style="stop-color:#ef4444;stop-opacity:1" />
      <stop offset="100%" style="stop-color:#b91c1c;stop-opacity:1" />
    </linearGradient>
  </defs>
  <!-- Beautiful dark rounded backdrop with red glow -->
  <rect width="512" height="512" rx="110" fill="#09090b" stroke="#ef4444" stroke-width="4" />
  <!-- Bell Group -->
  <g transform="translate(128, 110) scale(0.5)">
    <!-- Bell Body -->
    <path d="M256,32 C238.3,32 224,46.3 224,64 L224,72.5 C148.9,83.1 96,147.6 96,224 L96,352 L64,352 C46.3,352 32,366.3 32,384 C32,401.7 46.3,416 64,416 L448,416 C465.7,416 480,401.7 480,384 C480,366.3 465.7,352 448,352 L416,352 L416,224 C416,147.6 363.1,83.1 288,72.5 L288,64 C288,46.3 273.7,32 256,32 Z" fill="url(#grad)" />
    <!-- Clapper (Bottom center bell element) -->
    <path d="M256,480 C291.3,480 320,451.3 320,416 L192,416 C192,451.3 220.7,480 256,480 Z" fill="#f43f5e" />
  </g>
</svg>
